<?xml version="1.0" encoding="utf-8"?>
<!-- Generator: Adobe Illustrator 21.0.2, SVG Export Plug-In . SVG Version: 6.00 Build 0)  -->
<svg version="1.1" xmlns="http://www.w3.org/2000/svg" xmlns:xlink="http://www.w3.org/1999/xlink" x="0px" y="0px"
	 viewBox="0 0 356 100" style="enable-background:new 0 0 356 100;" xml:space="preserve">
<style type="text/css">
	.st0{fill:#1BA5AF;}
	.st1{fill:#161616;}
	.st2{fill:#1BA3AC;}
</style>
<g id="Livello_1">
</g>
<g id="Livello_2">
	<g>
		<g>
			<path class="st0" d="M153,18.6c-0.9,0-1.7,0.2-2.3,0.5c-0.6,0.3-1.2,0.8-1.6,1.3c-0.4,0.6-0.7,1.2-0.9,1.9
				c-0.2,0.7-0.3,1.5-0.3,2.3c0,0.7,0.1,1.8,0.2,3.2c0.1,1.4,0.3,2.7,0.5,4c1.1,0,2.1,0,3.2,0c1,0,2.1,0,3.2,0
				c0,0.2-0.1,0.4-0.1,0.6c0,0.2,0,0.4,0,0.6c0,0.2,0,0.4,0,0.6c0,0.2,0.1,0.4,0.1,0.6c-1.1,0-2.1-0.1-3.2-0.1c-1,0-2.1-0.1-3.2-0.1
				c0,4.5,0,8.9,0,13.3c0,4.4,0.1,8.8,0.2,13.3c-0.5-0.1-0.9-0.1-1.3-0.1s-0.9,0-1.3,0c-0.9,0-1.8,0-2.7,0.1
				c0.3-4.5,0.4-8.9,0.5-13.2c0-4.4,0.1-8.8,0.1-13.3c-0.7,0-1.5,0-2.2,0.1c-0.7,0-1.5,0.1-2.2,0.1c0-0.2,0.1-0.4,0.1-0.6
				c0-0.2,0-0.4,0-0.6c0-0.2,0-0.4,0-0.6c0-0.2-0.1-0.4-0.1-0.6c0.7,0,1.5,0,2.2,0c0.8,0,1.5,0,2.2,0c0-1.2,0.1-2.5,0.4-3.9
				c0.2-1.4,0.6-2.8,1.1-4.1c0.5-1.3,1-2.6,1.7-3.8c0.7-1.2,1.4-2.2,2.2-3c0.7-0.7,1.7-1.4,2.8-2c1.1-0.6,2.3-0.9,3.5-0.9
				c0.4,0,0.9,0.1,1.2,0.2c0,0.8-0.1,1.6-0.2,2.5c-0.1,0.8-0.1,1.6-0.1,2.5l-0.4,0.2C155.4,18.9,154.3,18.6,153,18.6z"/>
			<path class="st0" d="M158.9,34.5c1.8-1.4,3.5-2.3,5.1-2.8c1.6-0.5,3.1-0.7,4.8-0.7c1.5,0,2.8,0.2,4,0.6s2.3,1,3.1,1.8
				s1.5,1.8,2,2.9c0.5,1.1,0.7,2.4,0.7,3.7c0,2.3,0,4.7-0.1,7c-0.1,2.3-0.1,4.8-0.1,7.3c0,0.5,0,1,0,1.6c0,0.6,0.1,1,0.3,1.5
				c0.2,0.4,0.4,0.8,0.7,1.1s0.8,0.4,1.4,0.4c0.2,0,0.4,0,0.6,0c0.2,0,0.4-0.1,0.6-0.2V60c-0.5,0.2-1,0.4-1.7,0.5
				c-0.7,0.1-1.4,0.2-2.2,0.2c-1.3,0-2.3-0.3-3-1c-0.7-0.7-1.1-1.5-1.2-2.6c-1.5,1.5-2.9,2.6-4.4,3.3c-1.4,0.7-3.2,1-5.3,1
				c-1,0-2-0.1-3-0.4c-1-0.3-1.9-0.8-2.6-1.4c-0.8-0.7-1.4-1.4-1.8-2.4c-0.5-0.9-0.7-2-0.7-3.2c0-2.5,0.8-4.4,2.3-5.7
				c1.5-1.3,3.6-2.2,6.3-2.7c2.2-0.4,3.9-0.7,5.2-1c1.2-0.3,2.2-0.5,2.8-0.8c0.6-0.3,1-0.6,1.1-1c0.1-0.4,0.2-0.9,0.2-1.5
				c0-1-0.1-2-0.4-2.9c-0.2-0.9-0.6-1.8-1.2-2.5c-0.5-0.7-1.2-1.3-2.1-1.7s-1.9-0.6-3.1-0.6c-1.6,0-3.2,0.4-4.6,1.1
				c-1.4,0.7-2.5,1.8-3.2,3.1h-0.7V34.5z M174.1,45.4c-0.7,0.2-1.5,0.5-2.4,0.6c-0.9,0.2-1.8,0.3-2.8,0.5c-0.9,0.2-1.9,0.4-2.8,0.7
				c-0.9,0.3-1.7,0.7-2.5,1.2c-0.7,0.5-1.3,1.1-1.7,1.8c-0.4,0.7-0.6,1.7-0.6,2.8c0,1.9,0.6,3.4,1.7,4.4c1.1,1,2.3,1.5,3.7,1.5
				c1.6,0,3-0.4,4.3-1.3c1.3-0.9,2.3-1.9,3-3L174.1,45.4z"/>
			<path class="st0" d="M199.7,35.9c-0.6-0.2-1.2-0.3-1.8-0.3c-1,0-1.9,0.2-2.6,0.7c-0.8,0.5-1.4,1.1-2,1.8
				c-0.5,0.8-0.9,1.7-1.2,2.7c-0.3,1-0.4,2.2-0.4,3.3v6.7c0,2.7,0,4.8,0,6.3c0,1.5,0.1,2.6,0.2,3.5c-0.8-0.1-1.6-0.1-2.5-0.1
				c-0.9,0-1.8,0-2.6,0.1c0.1-1.4,0.2-3.3,0.2-5.7c0-2.4,0-5.3,0-8.8v-2c0-1.6,0-3.4,0-5.5c0-2.1-0.1-4.5-0.2-7.2
				c0.4,0.1,0.9,0.2,1.3,0.2c0.4,0.1,0.8,0.1,1.3,0.1c0.4,0,0.8,0,1.2-0.1c0.4-0.1,0.8-0.1,1.3-0.2c-0.2,1.5-0.3,2.6-0.3,3.5
				c0,0.9,0,1.7,0,2.5l0.1,0.1c2.4-4.4,5.1-6.6,8.1-6.6c0.4,0,0.7,0,1,0.1c0.3,0,0.6,0.1,1,0.3c-0.2,0.5-0.3,1.2-0.4,2.2
				c0,1-0.1,1.9-0.1,2.7l-0.4,0.3C200.7,36.3,200.3,36.1,199.7,35.9z"/>
			<path class="st0" d="M205.1,37.2c-0.1-2-0.2-3.9-0.4-5.7c1.1,0.2,2.1,0.3,2.8,0.3c0.3,0,0.7,0,1.1-0.1c0.4-0.1,0.8-0.1,1.4-0.2
				c-0.1,1.6-0.2,3.3-0.2,4.9h0.1c2.2-3.7,5.2-5.5,9.1-5.5c1,0,2,0.2,3,0.5c1,0.3,1.9,0.7,2.7,1.3c0.8,0.5,1.5,1.2,2.1,1.9
				c0.6,0.8,1,1.6,1.2,2.4h0.1c1-2,2.3-3.5,4-4.5c1.7-1,3.6-1.6,5.9-1.6c1.3,0,2.6,0.2,3.7,0.6c1.1,0.4,2.1,0.9,3,1.7
				c0.8,0.8,1.5,1.8,2,3c0.5,1.2,0.7,2.7,0.7,4.4c0,0.7,0,1.5-0.1,2.3c0,0.8-0.1,1.8-0.1,2.9c0,1.1-0.1,2.3-0.1,3.7
				c0,1.4-0.1,3-0.1,4.8c0,1.1,0,2.2,0,3.2c0,1,0.1,2.1,0.2,3.3c-0.5-0.1-0.9-0.1-1.3-0.1c-0.5,0-0.9,0-1.3,0c-0.5,0-0.9,0-1.3,0
				s-0.9,0-1.3,0.1c0.1-1,0.3-3.1,0.4-6.2c0.1-3.1,0.2-7.4,0.2-13c0-1-0.1-2-0.3-2.9c-0.2-0.9-0.6-1.7-1.1-2.3
				c-0.5-0.7-1.1-1.2-2-1.6c-0.8-0.4-1.8-0.6-3.1-0.6c-1.5,0-2.7,0.3-3.7,0.9c-1,0.6-1.8,1.2-2.4,2c-0.3,0.5-0.6,0.9-0.8,1.3
				c-0.2,0.5-0.3,1.1-0.4,2.1c-0.1,0.9-0.2,2.2-0.2,3.9c0,1.7-0.1,3.9-0.1,6.8c0,1.8,0,3.4,0.1,4.8c0.1,1.5,0.1,3,0.2,4.8
				c-0.9-0.1-1.8-0.1-2.7-0.1s-1.8,0-2.7,0.1c0.2-2.2,0.3-4.5,0.4-6.9c0.1-2.3,0.1-4.6,0.1-6.9c0-1.9,0-3.4,0-4.5
				c0-1.1-0.1-1.9-0.2-2.6c-0.1-0.6-0.2-1.2-0.3-1.6c-0.1-0.4-0.3-0.9-0.6-1.3c-0.5-0.8-1.2-1.4-2.1-2c-1-0.6-2-0.8-3-0.8
				c-2.7,0-4.7,0.9-5.9,2.6c-1.3,1.8-1.9,4.2-1.9,7.4v5.2c0,1.8,0,3.8,0.1,5.8c0.1,2,0.2,3.9,0.4,5.5c-0.9-0.1-1.9-0.1-2.8-0.1
				s-1.8,0-2.8,0.1c0.2-1.6,0.3-3.5,0.4-5.5c0.1-2,0.1-4,0.1-5.8V43C205.2,41.2,205.2,39.3,205.1,37.2z"/>
			<path class="st0" d="M254.6,34.5c1.8-1.4,3.5-2.3,5.1-2.8c1.6-0.5,3.1-0.7,4.8-0.7c1.5,0,2.8,0.2,4,0.6s2.3,1,3.1,1.8
				s1.5,1.8,2,2.9c0.5,1.1,0.7,2.4,0.7,3.7c0,2.3,0,4.7-0.1,7c-0.1,2.3-0.1,4.8-0.1,7.3c0,0.5,0,1,0,1.6c0,0.6,0.1,1,0.3,1.5
				c0.2,0.4,0.4,0.8,0.7,1.1s0.8,0.4,1.4,0.4c0.2,0,0.4,0,0.6,0c0.2,0,0.4-0.1,0.6-0.2V60c-0.5,0.2-1,0.4-1.7,0.5
				c-0.7,0.1-1.4,0.2-2.2,0.2c-1.3,0-2.3-0.3-3-1c-0.7-0.7-1.1-1.5-1.2-2.6c-1.5,1.5-2.9,2.6-4.4,3.3c-1.4,0.7-3.2,1-5.3,1
				c-1,0-2-0.1-3-0.4c-1-0.3-1.9-0.8-2.6-1.4c-0.8-0.7-1.4-1.4-1.8-2.4c-0.5-0.9-0.7-2-0.7-3.2c0-2.5,0.8-4.4,2.3-5.7
				c1.5-1.3,3.6-2.2,6.3-2.7c2.2-0.4,3.9-0.7,5.2-1c1.2-0.3,2.2-0.5,2.8-0.8c0.6-0.3,1-0.6,1.1-1c0.1-0.4,0.2-0.9,0.2-1.5
				c0-1-0.1-2-0.4-2.9c-0.2-0.9-0.6-1.8-1.2-2.5c-0.5-0.7-1.2-1.3-2.1-1.7s-1.9-0.6-3.1-0.6c-1.6,0-3.2,0.4-4.6,1.1
				c-1.4,0.7-2.5,1.8-3.2,3.1h-0.7V34.5z M269.8,45.4c-0.7,0.2-1.5,0.5-2.4,0.6c-0.9,0.2-1.8,0.3-2.8,0.5c-0.9,0.2-1.9,0.4-2.8,0.7
				c-0.9,0.3-1.7,0.7-2.5,1.2c-0.7,0.5-1.3,1.1-1.7,1.8c-0.4,0.7-0.6,1.7-0.6,2.8c0,1.9,0.6,3.4,1.7,4.4c1.1,1,2.3,1.5,3.7,1.5
				c1.6,0,3-0.4,4.3-1.3c1.3-0.9,2.3-1.9,3-3L269.8,45.4z"/>
			<path class="st0" d="M280.5,46.2c0-2.7,0.4-4.9,1.3-6.9c0.9-1.9,2.1-3.5,3.5-4.8c1.5-1.2,3.1-2.2,5-2.8c1.9-0.6,3.8-0.9,5.8-0.9
				c2.2,0,4.3,0.3,6,0.8c1.8,0.6,3.1,1.2,3.8,1.9c-0.3,0.6-0.5,1.3-0.8,1.9s-0.4,1.4-0.6,2.1h-0.5c-0.3-0.5-0.7-1.1-1.2-1.6
				c-0.5-0.6-1.1-1.1-1.7-1.5c-0.7-0.5-1.4-0.9-2.2-1.2c-0.8-0.3-1.7-0.5-2.7-0.5c-1.8,0-3.4,0.3-4.8,1c-1.3,0.7-2.4,1.6-3.3,2.8
				c-0.8,1.2-1.5,2.6-1.8,4.2c-0.4,1.6-0.6,3.4-0.6,5.2c0,4.2,0.9,7.4,2.7,9.5c1.8,2.1,4.4,3.2,7.9,3.2c0.8,0,1.7-0.1,2.5-0.3
				c0.9-0.2,1.7-0.5,2.5-0.9c0.8-0.4,1.6-0.8,2.3-1.4c0.7-0.5,1.3-1.1,1.9-1.7l0.3,0.2c-0.2,1-0.3,2-0.4,3c-1.2,1-2.8,1.8-4.6,2.5
				c-1.8,0.7-3.7,1-5.7,1c-1.8,0-3.5-0.3-5.3-0.8c-1.8-0.5-3.4-1.4-4.8-2.6c-1.4-1.2-2.6-2.8-3.5-4.7
				C280.9,51.3,280.5,49,280.5,46.2z"/>
			<path class="st0" d="M311.8,20.9c0-0.9,0.3-1.6,0.9-2.2s1.3-0.9,2.2-0.9c0.9,0,1.6,0.3,2.2,0.9s0.9,1.3,0.9,2.2
				c0,0.9-0.3,1.6-0.9,2.2s-1.3,0.9-2.2,0.9c-0.9,0-1.6-0.3-2.2-0.9S311.8,21.7,311.8,20.9z M312.7,43c0-1.8,0-3.8-0.1-5.8
				c-0.1-2-0.2-3.9-0.4-5.7c1.1,0.2,2.1,0.3,2.8,0.3c0.7,0,1.6-0.1,2.8-0.3c-0.2,1.8-0.3,3.6-0.4,5.7c-0.1,2-0.1,4-0.1,5.8v6.4
				c0,1.8,0,3.8,0.1,5.8c0.1,2,0.2,3.9,0.4,5.5c-0.9-0.1-1.9-0.1-2.8-0.1c-0.9,0-1.8,0-2.8,0.1c0.2-1.6,0.3-3.5,0.4-5.5
				c0.1-2,0.1-4,0.1-5.8V43z"/>
			<path class="st0" d="M326.6,34.5c1.8-1.4,3.5-2.3,5.1-2.8c1.6-0.5,3.1-0.7,4.8-0.7c1.5,0,2.8,0.2,4,0.6s2.3,1,3.1,1.8
				s1.5,1.8,2,2.9c0.5,1.1,0.7,2.4,0.7,3.7c0,2.3,0,4.7-0.1,7c-0.1,2.3-0.1,4.8-0.1,7.3c0,0.5,0,1,0,1.6c0,0.6,0.1,1,0.3,1.5
				c0.2,0.4,0.4,0.8,0.7,1.1s0.8,0.4,1.4,0.4c0.2,0,0.4,0,0.6,0c0.2,0,0.4-0.1,0.6-0.2V60c-0.5,0.2-1,0.4-1.7,0.5
				c-0.7,0.1-1.4,0.2-2.2,0.2c-1.3,0-2.3-0.3-3-1c-0.7-0.7-1.1-1.5-1.2-2.6c-1.5,1.5-2.9,2.6-4.4,3.3c-1.4,0.7-3.2,1-5.3,1
				c-1,0-2-0.1-3-0.4c-1-0.3-1.9-0.8-2.6-1.4c-0.8-0.7-1.4-1.4-1.8-2.4c-0.5-0.9-0.7-2-0.7-3.2c0-2.5,0.8-4.4,2.3-5.7
				c1.5-1.3,3.6-2.2,6.3-2.7c2.2-0.4,3.9-0.7,5.2-1c1.2-0.3,2.2-0.5,2.8-0.8c0.6-0.3,1-0.6,1.1-1c0.1-0.4,0.2-0.9,0.2-1.5
				c0-1-0.1-2-0.4-2.9c-0.2-0.9-0.6-1.8-1.2-2.5c-0.5-0.7-1.2-1.3-2.1-1.7s-1.9-0.6-3.1-0.6c-1.6,0-3.2,0.4-4.6,1.1
				c-1.4,0.7-2.5,1.8-3.2,3.1h-0.7V34.5z M341.7,45.4c-0.7,0.2-1.5,0.5-2.4,0.6c-0.9,0.2-1.8,0.3-2.8,0.5c-0.9,0.2-1.9,0.4-2.8,0.7
				c-0.9,0.3-1.7,0.7-2.5,1.2c-0.7,0.5-1.3,1.1-1.7,1.8c-0.4,0.7-0.6,1.7-0.6,2.8c0,1.9,0.6,3.4,1.7,4.4c1.1,1,2.3,1.5,3.7,1.5
				c1.6,0,3-0.4,4.3-1.3c1.3-0.9,2.3-1.9,3-3L341.7,45.4z"/>
		</g>
	</g>
	<g>
		<g>
			<path class="st1" d="M95.9,55.8c-1.1,1.7-2.5,3-4,3.9S88.6,61,86.6,61c-3.1,0-5.4-0.9-7.1-2.6c-1.7-1.7-2.5-4.6-2.5-8.5
				c0-2.1,0-3.9,0.1-5.5c0.1-1.6,0.1-3.2,0.1-4.8c0-1.3,0-2.7-0.1-4.3c-0.1-1.5-0.1-3.1-0.2-4.6c0.5,0.1,1.2,0.2,2,0.2
				c0.8,0.1,1.7,0.1,2.6,0.1c0.9,0,1.8,0,2.6-0.1c0.8-0.1,1.5-0.1,2-0.2c-0.3,2.2-0.5,4.8-0.6,7.7c-0.1,2.9-0.1,6.2-0.1,9.9
				c0,2.6,0.4,4.5,1.3,5.7c0.9,1.2,2.1,1.8,3.7,1.8c1.8,0,3.2-0.8,4-2.4c0.9-1.6,1.3-3.8,1.3-6.6v-2.5c0-2.5,0-4.8-0.1-7
				c-0.1-2.2-0.2-4.4-0.4-6.6c1.1,0.2,2.7,0.3,4.6,0.3c0.9,0,1.8,0,2.6-0.1c0.8-0.1,1.5-0.1,2-0.2c-0.2,2.2-0.3,4.4-0.4,6.6
				c-0.1,2.2-0.1,4.5-0.1,7v2.5c0,2.5,0,4.8,0.1,7.1c0.1,2.2,0.2,4.3,0.4,6.4c-0.7-0.1-1.5-0.1-2.2-0.1c-0.7,0-1.4,0-2.2,0
				c-0.7,0-1.5,0-2.2,0c-0.7,0-1.5,0-2.3,0.1l0.2-4.4H95.9z"/>
			<path class="st1" d="M116.8,45.5c0,1.6,0.2,3.2,0.5,4.6c0.3,1.4,0.8,2.7,1.5,3.7c0.7,1,1.5,1.9,2.6,2.5s2.3,0.9,3.6,0.9
				c2.8,0,5.3-0.9,7.5-2.8l0.7,0.6l-1.3,3.4c-1,0.8-2.2,1.4-3.7,1.9c-1.4,0.5-3.3,0.7-5.6,0.7c-2,0-3.9-0.3-5.7-0.8
				c-1.8-0.6-3.4-1.5-4.8-2.7c-1.4-1.3-2.5-2.9-3.3-4.8c-0.8-1.9-1.2-4.3-1.2-7c0-2.7,0.4-5,1.1-6.9c0.7-2,1.7-3.6,3-4.9
				c1.3-1.3,2.8-2.3,4.5-2.9c1.7-0.7,3.6-1,5.7-1c4,0,7.1,1.2,9.3,3.6c2.1,2.4,3.2,5.7,3.2,10.1v1.3c0,0.4,0,0.6-0.1,0.7H116.8z
				 M126.2,42.8c-0.1-3.1-0.5-5.5-1.1-7.4s-1.8-2.8-3.4-2.8c-0.9,0-1.7,0.3-2.3,0.9s-1.1,1.4-1.5,2.4c-0.4,1-0.6,2-0.8,3.3
				c-0.2,1.2-0.3,2.4-0.3,3.6H126.2z"/>
		</g>
	</g>
	<g>
		<g>
			<path class="st0" d="M153,18.6c-0.9,0-1.7,0.2-2.3,0.5c-0.6,0.3-1.2,0.8-1.6,1.3c-0.4,0.6-0.7,1.2-0.9,1.9
				c-0.2,0.7-0.3,1.5-0.3,2.3c0,0.7,0.1,1.8,0.2,3.2c0.1,1.4,0.3,2.7,0.5,4c1.1,0,2.1,0,3.2,0c1,0,2.1,0,3.2,0
				c0,0.2-0.1,0.4-0.1,0.6c0,0.2,0,0.4,0,0.6c0,0.2,0,0.4,0,0.6c0,0.2,0.1,0.4,0.1,0.6c-1.1,0-2.1-0.1-3.2-0.1c-1,0-2.1-0.1-3.2-0.1
				c0,4.5,0,8.9,0,13.3c0,4.4,0.1,8.8,0.2,13.3c-0.5-0.1-0.9-0.1-1.3-0.1s-0.9,0-1.3,0c-0.9,0-1.8,0-2.7,0.1
				c0.3-4.5,0.4-8.9,0.5-13.2c0-4.4,0.1-8.8,0.1-13.3c-0.7,0-1.5,0-2.2,0.1c-0.7,0-1.5,0.1-2.2,0.1c0-0.2,0.1-0.4,0.1-0.6
				c0-0.2,0-0.4,0-0.6c0-0.2,0-0.4,0-0.6c0-0.2-0.1-0.4-0.1-0.6c0.7,0,1.5,0,2.2,0c0.8,0,1.5,0,2.2,0c0-1.2,0.1-2.5,0.4-3.9
				c0.2-1.4,0.6-2.8,1.1-4.1c0.5-1.3,1-2.6,1.7-3.8c0.7-1.2,1.4-2.2,2.2-3c0.7-0.7,1.7-1.4,2.8-2c1.1-0.6,2.3-0.9,3.5-0.9
				c0.4,0,0.9,0.1,1.2,0.2c0,0.8-0.1,1.6-0.2,2.5c-0.1,0.8-0.1,1.6-0.1,2.5l-0.4,0.2C155.4,18.9,154.3,18.6,153,18.6z"/>
			<path class="st0" d="M158.9,34.5c1.8-1.4,3.5-2.3,5.1-2.8c1.6-0.5,3.1-0.7,4.8-0.7c1.5,0,2.8,0.2,4,0.6s2.3,1,3.1,1.8
				s1.5,1.8,2,2.9c0.5,1.1,0.7,2.4,0.7,3.7c0,2.3,0,4.7-0.1,7c-0.1,2.3-0.1,4.8-0.1,7.3c0,0.5,0,1,0,1.6c0,0.6,0.1,1,0.3,1.5
				c0.2,0.4,0.4,0.8,0.7,1.1s0.8,0.4,1.4,0.4c0.2,0,0.4,0,0.6,0c0.2,0,0.4-0.1,0.6-0.2V60c-0.5,0.2-1,0.4-1.7,0.5
				c-0.7,0.1-1.4,0.2-2.2,0.2c-1.3,0-2.3-0.3-3-1c-0.7-0.7-1.1-1.5-1.2-2.6c-1.5,1.5-2.9,2.6-4.4,3.3c-1.4,0.7-3.2,1-5.3,1
				c-1,0-2-0.1-3-0.4c-1-0.3-1.9-0.8-2.6-1.4c-0.8-0.7-1.4-1.4-1.8-2.4c-0.5-0.9-0.7-2-0.7-3.2c0-2.5,0.8-4.4,2.3-5.7
				c1.5-1.3,3.6-2.2,6.3-2.7c2.2-0.4,3.9-0.7,5.2-1c1.2-0.3,2.2-0.5,2.8-0.8c0.6-0.3,1-0.6,1.1-1c0.1-0.4,0.2-0.9,0.2-1.5
				c0-1-0.1-2-0.4-2.9c-0.2-0.9-0.6-1.8-1.2-2.5c-0.5-0.7-1.2-1.3-2.1-1.7s-1.9-0.6-3.1-0.6c-1.6,0-3.2,0.4-4.6,1.1
				c-1.4,0.7-2.5,1.8-3.2,3.1h-0.7V34.5z M174.1,45.4c-0.7,0.2-1.5,0.5-2.4,0.6c-0.9,0.2-1.8,0.3-2.8,0.5c-0.9,0.2-1.9,0.4-2.8,0.7
				c-0.9,0.3-1.7,0.7-2.5,1.2c-0.7,0.5-1.3,1.1-1.7,1.8c-0.4,0.7-0.6,1.7-0.6,2.8c0,1.9,0.6,3.4,1.7,4.4c1.1,1,2.3,1.5,3.7,1.5
				c1.6,0,3-0.4,4.3-1.3c1.3-0.9,2.3-1.9,3-3L174.1,45.4z"/>
			<path class="st0" d="M199.7,35.9c-0.6-0.2-1.2-0.3-1.8-0.3c-1,0-1.9,0.2-2.6,0.7c-0.8,0.5-1.4,1.1-2,1.8
				c-0.5,0.8-0.9,1.7-1.2,2.7c-0.3,1-0.4,2.2-0.4,3.3v6.7c0,2.7,0,4.8,0,6.3c0,1.5,0.1,2.6,0.2,3.5c-0.8-0.1-1.6-0.1-2.5-0.1
				c-0.9,0-1.8,0-2.6,0.1c0.1-1.4,0.2-3.3,0.2-5.7c0-2.4,0-5.3,0-8.8v-2c0-1.6,0-3.4,0-5.5c0-2.1-0.1-4.5-0.2-7.2
				c0.4,0.1,0.9,0.2,1.3,0.2c0.4,0.1,0.8,0.1,1.3,0.1c0.4,0,0.8,0,1.2-0.1c0.4-0.1,0.8-0.1,1.3-0.2c-0.2,1.5-0.3,2.6-0.3,3.5
				c0,0.9,0,1.7,0,2.5l0.1,0.1c2.4-4.4,5.1-6.6,8.1-6.6c0.4,0,0.7,0,1,0.1c0.3,0,0.6,0.1,1,0.3c-0.2,0.5-0.3,1.2-0.4,2.2
				c0,1-0.1,1.9-0.1,2.7l-0.4,0.3C200.7,36.3,200.3,36.1,199.7,35.9z"/>
			<path class="st0" d="M205.1,37.2c-0.1-2-0.2-3.9-0.4-5.7c1.1,0.2,2.1,0.3,2.8,0.3c0.3,0,0.7,0,1.1-0.1c0.4-0.1,0.8-0.1,1.4-0.2
				c-0.1,1.6-0.2,3.3-0.2,4.9h0.1c2.2-3.7,5.2-5.5,9.1-5.5c1,0,2,0.2,3,0.5c1,0.3,1.9,0.7,2.7,1.3c0.8,0.5,1.5,1.2,2.1,1.9
				c0.6,0.8,1,1.6,1.2,2.4h0.1c1-2,2.3-3.5,4-4.5c1.7-1,3.6-1.6,5.9-1.6c1.3,0,2.6,0.2,3.7,0.6c1.1,0.4,2.1,0.9,3,1.7
				c0.8,0.8,1.5,1.8,2,3c0.5,1.2,0.7,2.7,0.7,4.4c0,0.7,0,1.5-0.1,2.3c0,0.8-0.1,1.8-0.1,2.9c0,1.1-0.1,2.3-0.1,3.7
				c0,1.4-0.1,3-0.1,4.8c0,1.1,0,2.2,0,3.2c0,1,0.1,2.1,0.2,3.3c-0.5-0.1-0.9-0.1-1.3-0.1c-0.5,0-0.9,0-1.3,0c-0.5,0-0.9,0-1.3,0
				s-0.9,0-1.3,0.1c0.1-1,0.3-3.1,0.4-6.2c0.1-3.1,0.2-7.4,0.2-13c0-1-0.1-2-0.3-2.9c-0.2-0.9-0.6-1.7-1.1-2.3
				c-0.5-0.7-1.1-1.2-2-1.6c-0.8-0.4-1.8-0.6-3.1-0.6c-1.5,0-2.7,0.3-3.7,0.9c-1,0.6-1.8,1.2-2.4,2c-0.3,0.5-0.6,0.9-0.8,1.3
				c-0.2,0.5-0.3,1.1-0.4,2.1c-0.1,0.9-0.2,2.2-0.2,3.9c0,1.7-0.1,3.9-0.1,6.8c0,1.8,0,3.4,0.1,4.8c0.1,1.5,0.1,3,0.2,4.8
				c-0.9-0.1-1.8-0.1-2.7-0.1s-1.8,0-2.7,0.1c0.2-2.2,0.3-4.5,0.4-6.9c0.1-2.3,0.1-4.6,0.1-6.9c0-1.9,0-3.4,0-4.5
				c0-1.1-0.1-1.9-0.2-2.6c-0.1-0.6-0.2-1.2-0.3-1.6c-0.1-0.4-0.3-0.9-0.6-1.3c-0.5-0.8-1.2-1.4-2.1-2c-1-0.6-2-0.8-3-0.8
				c-2.7,0-4.7,0.9-5.9,2.6c-1.3,1.8-1.9,4.2-1.9,7.4v5.2c0,1.8,0,3.8,0.1,5.8c0.1,2,0.2,3.9,0.4,5.5c-0.9-0.1-1.9-0.1-2.8-0.1
				s-1.8,0-2.8,0.1c0.2-1.6,0.3-3.5,0.4-5.5c0.1-2,0.1-4,0.1-5.8V43C205.2,41.2,205.2,39.3,205.1,37.2z"/>
			<path class="st0" d="M254.6,34.5c1.8-1.4,3.5-2.3,5.1-2.8c1.6-0.5,3.1-0.7,4.8-0.7c1.5,0,2.8,0.2,4,0.6s2.3,1,3.1,1.8
				s1.5,1.8,2,2.9c0.5,1.1,0.7,2.4,0.7,3.7c0,2.3,0,4.7-0.1,7c-0.1,2.3-0.1,4.8-0.1,7.3c0,0.5,0,1,0,1.6c0,0.6,0.1,1,0.3,1.5
				c0.2,0.4,0.4,0.8,0.7,1.1s0.8,0.4,1.4,0.4c0.2,0,0.4,0,0.6,0c0.2,0,0.4-0.1,0.6-0.2V60c-0.5,0.2-1,0.4-1.7,0.5
				c-0.7,0.1-1.4,0.2-2.2,0.2c-1.3,0-2.3-0.3-3-1c-0.7-0.7-1.1-1.5-1.2-2.6c-1.5,1.5-2.9,2.6-4.4,3.3c-1.4,0.7-3.2,1-5.3,1
				c-1,0-2-0.1-3-0.4c-1-0.3-1.9-0.8-2.6-1.4c-0.8-0.7-1.4-1.4-1.8-2.4c-0.5-0.9-0.7-2-0.7-3.2c0-2.5,0.8-4.4,2.3-5.7
				c1.5-1.3,3.6-2.2,6.3-2.7c2.2-0.4,3.9-0.7,5.2-1c1.2-0.3,2.2-0.5,2.8-0.8c0.6-0.3,1-0.6,1.1-1c0.1-0.4,0.2-0.9,0.2-1.5
				c0-1-0.1-2-0.4-2.9c-0.2-0.9-0.6-1.8-1.2-2.5c-0.5-0.7-1.2-1.3-2.1-1.7s-1.9-0.6-3.1-0.6c-1.6,0-3.2,0.4-4.6,1.1
				c-1.4,0.7-2.5,1.8-3.2,3.1h-0.7V34.5z M269.8,45.4c-0.7,0.2-1.5,0.5-2.4,0.6c-0.9,0.2-1.8,0.3-2.8,0.5c-0.9,0.2-1.9,0.4-2.8,0.7
				c-0.9,0.3-1.7,0.7-2.5,1.2c-0.7,0.5-1.3,1.1-1.7,1.8c-0.4,0.7-0.6,1.7-0.6,2.8c0,1.9,0.6,3.4,1.7,4.4c1.1,1,2.3,1.5,3.7,1.5
				c1.6,0,3-0.4,4.3-1.3c1.3-0.9,2.3-1.9,3-3L269.8,45.4z"/>
			<path class="st0" d="M280.5,46.2c0-2.7,0.4-4.9,1.3-6.9c0.9-1.9,2.1-3.5,3.5-4.8c1.5-1.2,3.1-2.2,5-2.8c1.9-0.6,3.8-0.9,5.8-0.9
				c2.2,0,4.3,0.3,6,0.8c1.8,0.6,3.1,1.2,3.8,1.9c-0.3,0.6-0.5,1.3-0.8,1.9s-0.4,1.4-0.6,2.1h-0.5c-0.3-0.5-0.7-1.1-1.2-1.6
				c-0.5-0.6-1.1-1.1-1.7-1.5c-0.7-0.5-1.4-0.9-2.2-1.2c-0.8-0.3-1.7-0.5-2.7-0.5c-1.8,0-3.4,0.3-4.8,1c-1.3,0.7-2.4,1.6-3.3,2.8
				c-0.8,1.2-1.5,2.6-1.8,4.2c-0.4,1.6-0.6,3.4-0.6,5.2c0,4.2,0.9,7.4,2.7,9.5c1.8,2.1,4.4,3.2,7.9,3.2c0.8,0,1.7-0.1,2.5-0.3
				c0.9-0.2,1.7-0.5,2.5-0.9c0.8-0.4,1.6-0.8,2.3-1.4c0.7-0.5,1.3-1.1,1.9-1.7l0.3,0.2c-0.2,1-0.3,2-0.4,3c-1.2,1-2.8,1.8-4.6,2.5
				c-1.8,0.7-3.7,1-5.7,1c-1.8,0-3.5-0.3-5.3-0.8c-1.8-0.5-3.4-1.4-4.8-2.6c-1.4-1.2-2.6-2.8-3.5-4.7
				C280.9,51.3,280.5,49,280.5,46.2z"/>
			<path class="st0" d="M311.8,20.9c0-0.9,0.3-1.6,0.9-2.2s1.3-0.9,2.2-0.9c0.9,0,1.6,0.3,2.2,0.9s0.9,1.3,0.9,2.2
				c0,0.9-0.3,1.6-0.9,2.2s-1.3,0.9-2.2,0.9c-0.9,0-1.6-0.3-2.2-0.9S311.8,21.7,311.8,20.9z M312.7,43c0-1.8,0-3.8-0.1-5.8
				c-0.1-2-0.2-3.9-0.4-5.7c1.1,0.2,2.1,0.3,2.8,0.3c0.7,0,1.6-0.1,2.8-0.3c-0.2,1.8-0.3,3.6-0.4,5.7c-0.1,2-0.1,4-0.1,5.8v6.4
				c0,1.8,0,3.8,0.1,5.8c0.1,2,0.2,3.9,0.4,5.5c-0.9-0.1-1.9-0.1-2.8-0.1c-0.9,0-1.8,0-2.8,0.1c0.2-1.6,0.3-3.5,0.4-5.5
				c0.1-2,0.1-4,0.1-5.8V43z"/>
			<path class="st0" d="M326.6,34.5c1.8-1.4,3.5-2.3,5.1-2.8c1.6-0.5,3.1-0.7,4.8-0.7c1.5,0,2.8,0.2,4,0.6s2.3,1,3.1,1.8
				s1.5,1.8,2,2.9c0.5,1.1,0.7,2.4,0.7,3.7c0,2.3,0,4.7-0.1,7c-0.1,2.3-0.1,4.8-0.1,7.3c0,0.5,0,1,0,1.6c0,0.6,0.1,1,0.3,1.5
				c0.2,0.4,0.4,0.8,0.7,1.1s0.8,0.4,1.4,0.4c0.2,0,0.4,0,0.6,0c0.2,0,0.4-0.1,0.6-0.2V60c-0.5,0.2-1,0.4-1.7,0.5
				c-0.7,0.1-1.4,0.2-2.2,0.2c-1.3,0-2.3-0.3-3-1c-0.7-0.7-1.1-1.5-1.2-2.6c-1.5,1.5-2.9,2.6-4.4,3.3c-1.4,0.7-3.2,1-5.3,1
				c-1,0-2-0.1-3-0.4c-1-0.3-1.9-0.8-2.6-1.4c-0.8-0.7-1.4-1.4-1.8-2.4c-0.5-0.9-0.7-2-0.7-3.2c0-2.5,0.8-4.4,2.3-5.7
				c1.5-1.3,3.6-2.2,6.3-2.7c2.2-0.4,3.9-0.7,5.2-1c1.2-0.3,2.2-0.5,2.8-0.8c0.6-0.3,1-0.6,1.1-1c0.1-0.4,0.2-0.9,0.2-1.5
				c0-1-0.1-2-0.4-2.9c-0.2-0.9-0.6-1.8-1.2-2.5c-0.5-0.7-1.2-1.3-2.1-1.7s-1.9-0.6-3.1-0.6c-1.6,0-3.2,0.4-4.6,1.1
				c-1.4,0.7-2.5,1.8-3.2,3.1h-0.7V34.5z M341.7,45.4c-0.7,0.2-1.5,0.5-2.4,0.6c-0.9,0.2-1.8,0.3-2.8,0.5c-0.9,0.2-1.9,0.4-2.8,0.7
				c-0.9,0.3-1.7,0.7-2.5,1.2c-0.7,0.5-1.3,1.1-1.7,1.8c-0.4,0.7-0.6,1.7-0.6,2.8c0,1.9,0.6,3.4,1.7,4.4c1.1,1,2.3,1.5,3.7,1.5
				c1.6,0,3-0.4,4.3-1.3c1.3-0.9,2.3-1.9,3-3L341.7,45.4z"/>
		</g>
	</g>
	<g>
		<g>
			<path class="st1" d="M95.9,55.8c-1.1,1.7-2.5,3-4,3.9S88.6,61,86.6,61c-3.1,0-5.4-0.9-7.1-2.6c-1.7-1.7-2.5-4.6-2.5-8.5
				c0-2.1,0-3.9,0.1-5.5c0.1-1.6,0.1-3.2,0.1-4.8c0-1.3,0-2.7-0.1-4.3c-0.1-1.5-0.1-3.1-0.2-4.6c0.5,0.1,1.2,0.2,2,0.2
				c0.8,0.1,1.7,0.1,2.6,0.1c0.9,0,1.8,0,2.6-0.1c0.8-0.1,1.5-0.1,2-0.2c-0.3,2.2-0.5,4.8-0.6,7.7c-0.1,2.9-0.1,6.2-0.1,9.9
				c0,2.6,0.4,4.5,1.3,5.7c0.9,1.2,2.1,1.8,3.7,1.8c1.8,0,3.2-0.8,4-2.4c0.9-1.6,1.3-3.8,1.3-6.6v-2.5c0-2.5,0-4.8-0.1-7
				c-0.1-2.2-0.2-4.4-0.4-6.6c1.1,0.2,2.7,0.3,4.6,0.3c0.9,0,1.8,0,2.6-0.1c0.8-0.1,1.5-0.1,2-0.2c-0.2,2.2-0.3,4.4-0.4,6.6
				c-0.1,2.2-0.1,4.5-0.1,7v2.5c0,2.5,0,4.8,0.1,7.1c0.1,2.2,0.2,4.3,0.4,6.4c-0.7-0.1-1.5-0.1-2.2-0.1c-0.7,0-1.4,0-2.2,0
				c-0.7,0-1.5,0-2.2,0c-0.7,0-1.5,0-2.3,0.1l0.2-4.4H95.9z"/>
			<path class="st1" d="M116.8,45.5c0,1.6,0.2,3.2,0.5,4.6c0.3,1.4,0.8,2.7,1.5,3.7c0.7,1,1.5,1.9,2.6,2.5s2.3,0.9,3.6,0.9
				c2.8,0,5.3-0.9,7.5-2.8l0.7,0.6l-1.3,3.4c-1,0.8-2.2,1.4-3.7,1.9c-1.4,0.5-3.3,0.7-5.6,0.7c-2,0-3.9-0.3-5.7-0.8
				c-1.8-0.6-3.4-1.5-4.8-2.7c-1.4-1.3-2.5-2.9-3.3-4.8c-0.8-1.9-1.2-4.3-1.2-7c0-2.7,0.4-5,1.1-6.9c0.7-2,1.7-3.6,3-4.9
				c1.3-1.3,2.8-2.3,4.5-2.9c1.7-0.7,3.6-1,5.7-1c4,0,7.1,1.2,9.3,3.6c2.1,2.4,3.2,5.7,3.2,10.1v1.3c0,0.4,0,0.6-0.1,0.7H116.8z
				 M126.2,42.8c-0.1-3.1-0.5-5.5-1.1-7.4s-1.8-2.8-3.4-2.8c-0.9,0-1.7,0.3-2.3,0.9s-1.1,1.4-1.5,2.4c-0.4,1-0.6,2-0.8,3.3
				c-0.2,1.2-0.3,2.4-0.3,3.6H126.2z"/>
		</g>
	</g>
	<g>
		<path class="st1" d="M66,60.1c7.4-12.3,5.8-28.5-4.8-39.1C48.6,8.5,28.4,8.5,15.9,21c-12.5,12.5-12.5,32.8,0,45.3
			c11,11,27.9,12.3,40.3,4.1c1.7-0.4,2.9,0.2,4.4,2c4.8,5.7,10.2,11,15,16.7c2.5,3.1,4.5,2.6,6.8,0.3c1.7-1.7,0,0,2.3-2.3
			c0,0,0,0,0,0c0,0,0.1-0.1,0.1-0.1c2.3-2.3,2.8-4.3-0.3-6.8c-5.8-4.8-11-10.2-16.7-15C65.7,63.4,65.2,62.1,66,60.1z"/>
		
			<ellipse transform="matrix(0.7071 -0.7071 0.7071 0.7071 -19.6041 40.0174)" class="st2" cx="38.5" cy="43.7" rx="24.5" ry="24.5"/>
		
			<ellipse transform="matrix(0.7071 -0.7071 0.7071 0.7071 -19.6041 40.0174)" class="st2" cx="38.5" cy="43.7" rx="24.5" ry="24.5"/>
	</g>
</g>
</svg>
